<svg width="48" height="49" viewBox="0 0 48 49" fill="none" xmlns="http://www.w3.org/2000/svg">
<g clip-path="url(#clip0_26_61)">
<path d="M24 48.7642C37.2548 48.7642 48 38.0087 48 24.7412C48 11.4737 37.2548 0.718201 24 0.718201C10.7452 0.718201 0 11.4737 0 24.7412C0 38.0087 10.7452 48.7642 24 48.7642Z" fill="#4D76A1"/>
<path fill-rule="evenodd" clip-rule="evenodd" d="M23.0933 35.2774H24.977C24.977 35.2774 25.546 35.2149 25.8365 34.9014C26.1039 34.6137 26.0953 34.0732 26.0953 34.0732C26.0953 34.0732 26.0585 31.5432 27.2316 31.1707C28.388 30.8037 29.873 33.6159 31.447 34.6972C32.6372 35.5155 33.5416 35.3361 33.5416 35.3361L37.7501 35.2774C37.7501 35.2774 39.9517 35.1417 38.9078 33.409C38.8222 33.2673 38.2998 32.1273 35.7787 29.7849C33.1399 27.3333 33.4933 27.7298 36.672 23.489C38.6079 20.9064 39.3818 19.3296 39.1401 18.6543C38.9095 18.0111 37.4857 18.1811 37.4857 18.1811L32.7471 18.2106C32.7471 18.2106 32.3959 18.1627 32.1353 18.3185C31.8808 18.4714 31.7169 18.8277 31.7169 18.8277C31.7169 18.8277 30.967 20.8263 29.9667 22.5259C27.8567 26.1124 27.013 26.3017 26.6682 26.079C25.866 25.56 26.0662 23.9939 26.0662 22.8814C26.0662 19.4058 26.5929 17.9567 25.0408 17.5816C24.5257 17.4569 24.1466 17.3747 22.8293 17.3615C21.1386 17.3439 19.7075 17.3666 18.8972 17.764C18.3582 18.0282 17.9423 18.617 18.1956 18.6509C18.5088 18.6928 19.2181 18.8423 19.5941 19.3549C20.0797 20.0161 20.0626 21.5012 20.0626 21.5012C20.0626 21.5012 20.3416 25.5925 19.411 26.1008C18.7723 26.4494 17.8961 25.7377 16.015 22.484C15.0511 20.8173 14.3234 18.975 14.3234 18.975C14.3234 18.975 14.183 18.6307 13.9328 18.4466C13.629 18.2235 13.2046 18.1524 13.2046 18.1524L8.70178 18.1819C8.70178 18.1819 8.02582 18.2008 7.77768 18.495C7.55693 18.7566 7.76014 19.2979 7.76014 19.2979C7.76014 19.2979 11.2854 27.5534 15.277 31.7137C18.937 35.5279 23.0933 35.2774 23.0933 35.2774Z" fill="white"/>
</g>
<defs>
<clipPath id="clip0_26_61">
<rect width="48" height="48.046" fill="white" transform="translate(0 0.718201)"/>
</clipPath>
</defs>
</svg>
