<svg width="48" height="49" viewBox="0 0 48 49" fill="none" xmlns="http://www.w3.org/2000/svg">
<g clip-path="url(#clip0_26_55)">
<path d="M23.9871 0.730847C10.7401 0.73366 0.00357906 11.4851 0.00638989 24.7448C0.00732684 29.3362 1.32364 33.831 3.79905 37.6964L0.0672913 47.388C-0.131435 47.9034 0.124914 48.4826 0.639859 48.6815C0.755009 48.7259 0.877281 48.7487 1.00068 48.7485C1.11517 48.7491 1.22882 48.7295 1.33648 48.6905L11.3306 45.1192C22.5751 52.1291 37.3677 48.6875 44.3709 37.4321C51.374 26.1768 47.9357 11.37 36.6912 4.36021C32.8795 1.9839 28.4778 0.726439 23.9871 0.730847Z" fill="#55CD6C"/>
<path d="M35.422 28.8431C35.422 28.8431 32.9735 27.6426 31.4404 26.8424C29.7054 25.948 27.6666 27.6227 26.7072 28.575C25.214 28.0009 23.8502 27.1343 22.6956 26.0261C21.5882 24.8705 20.7225 23.5054 20.1491 22.0106C21.1005 21.0483 22.7695 19.0095 21.8801 17.2729C21.0905 15.7363 19.8813 13.2874 19.8813 13.2855C19.7116 12.9484 19.3669 12.7356 18.9898 12.7352H16.991C14.0801 13.2385 11.9636 15.7808 11.994 18.7374C11.994 21.8785 15.7497 27.9128 18.2823 30.4497C20.8148 32.9866 26.8433 36.744 29.9833 36.744C32.9371 36.7744 35.477 34.6558 35.9798 31.7422V29.7415C35.9801 29.36 35.7638 29.0116 35.422 28.8431Z" fill="#FAFAFA"/>
</g>
<defs>
<clipPath id="clip0_26_55">
<rect width="48" height="48.046" fill="white" transform="translate(0 0.718201)"/>
</clipPath>
</defs>
</svg>
